<?xml version="1.0" encoding="UTF-8" standalone="no"?>
<svg
   version="1.1"
   style="display:block"
   viewBox="0 0 695.05664 668.04187"
   width="695.05664"
   height="668.04187"
   preserveAspectRatio="none"
   id="svg41"
   xmlns="http://www.w3.org/2000/svg"
   xmlns:svg="http://www.w3.org/2000/svg">
  <defs
     id="defs8">
    <linearGradient
       id="Gradient1"
       gradientUnits="userSpaceOnUse"
       x1="1247.6"
       y1="742.96301"
       x2="1314.49"
       y2="667.53302">
      <stop
         class="stop0"
         offset="0"
         stop-opacity="1"
         stop-color="rgb(25,60,108)"
         id="stop1" />
      <stop
         class="stop1"
         offset="1"
         stop-opacity="1"
         stop-color="rgb(33,83,147)"
         id="stop2" />
    </linearGradient>
    <linearGradient
       id="Gradient2"
       gradientUnits="userSpaceOnUse"
       x1="1409"
       y1="624.27197"
       x2="1476.52"
       y2="507.02899">
      <stop
         class="stop0"
         offset="0"
         stop-opacity="1"
         stop-color="rgb(33,84,153)"
         id="stop3" />
      <stop
         class="stop1"
         offset="1"
         stop-opacity="1"
         stop-color="rgb(44,105,197)"
         id="stop4" />
    </linearGradient>
    <linearGradient
       id="Gradient3"
       gradientUnits="userSpaceOnUse"
       x1="1250.52"
       y1="589.06799"
       x2="1299.35"
       y2="485.34">
      <stop
         class="stop0"
         offset="0"
         stop-opacity="1"
         stop-color="rgb(32,84,152)"
         id="stop5" />
      <stop
         class="stop1"
         offset="1"
         stop-opacity="1"
         stop-color="rgb(44,104,196)"
         id="stop6" />
    </linearGradient>
    <linearGradient
       id="Gradient4"
       gradientUnits="userSpaceOnUse"
       x1="1095.17"
       y1="718.96997"
       x2="1714.16"
       y2="806.078">
      <stop
         class="stop0"
         offset="0"
         stop-opacity="1"
         stop-color="rgb(19,47,79)"
         id="stop7" />
      <stop
         class="stop1"
         offset="1"
         stop-opacity="1"
         stop-color="rgb(44,109,204)"
         id="stop8" />
    </linearGradient>
  </defs>
  <g
     id="g117"
     transform="matrix(0.80627203,0,0,0.80627203,-787.835,-285.01233)"
     style="stroke-width:1.24028">
    <g
       id="g116"
       style="stroke-width:1.24028">
      <path
         d="m 1740.2598,629.26562 c -191.61,104.184 -381.9805,140.6328 -598.9805,142.0918 -21.62,-0.097 -43.2396,-0.5233 -64.8496,-1.2793 9.68,10.26001 26.1509,28.79957 36.2109,37.72657 2.12,3.328 23.0501,24.84651 27.3301,29.35351 l 70.0898,73.56055 371.1895,-0.0117 c 16.66,-11.415 31.1503,-22.18612 46.0703,-35.82812 68.58,-63.766 109.1695,-152.04929 112.9395,-245.61329 z m -59.4004,77.78907 0.8398,1.42578 c -1.62,8.099 -9.0283,27.87161 -12.5683,35.84961 -24.33,54.73 -53.8413,87.50962 -100.2813,123.39062 L 1228.75,867.6523 c -7.4,-7.535 -14.8101,-15.58611 -22.0801,-23.28711 l -28.6308,-30.45507 c 160.31,-1.13 358.0203,-37.99647 502.8203,-106.85547 z"
         style="fill:url(#Gradient4);stroke-width:1.24028"
         id="path115" />
      <path
         d="m 1554.7969,994.55469 c -10.9855,0.16412 -21.5735,0.57211 -31.086,0.59961 l 0.049,184.1055 43.1308,0.1211 c 30.81,0.04 59.0791,0.2889 82.2891,-23.8711 32.87,-36.32 32.6304,-105.2199 -3.0996,-139.0899 -21.795,-20.66548 -58.3268,-22.35759 -91.2832,-21.86521 z m 12.6562,20.43361 c 21.4983,-0.2236 45.1723,1.0548 59.9473,13.9023 30.14,26.2 29.6698,82.9588 4.7598,112.4688 -24.88,22.05 -53.2409,17.7899 -85.1309,17.6699 l 0.061,-143.6895 c 6.2725,-0.035 13.1972,-0.277 20.3633,-0.3515 z"
         style="fill:#132c4a;stroke-width:1.24028"
         id="path109" />
      <path
         d="m 1753.8223,994.78711 c -17.535,-0.11525 -35.3968,0.57189 -47.7618,0.52539 l -0.051,183.957 47.0703,0.09 c 32.01,0.13 65.04,4.2715 82.25,-28.8985 9.61,-28.37 1.739,-56.7609 -28.541,-66.7109 -0.6,-0.2 -1.2086,-0.3901 -1.8086,-0.5801 42.19,-19.84 32.7786,-72.8706 -5.3614,-84.09763 -11.055,-3.2535 -28.2618,-4.16991 -45.7968,-4.28516 z m -0.6914,19.72069 c 26.309,-0.6567 56.5907,1.5821 55.9082,29.6621 -0.27,11.08 -1.8989,15.4899 -9.6289,23.3399 -15.81,10.62 -49.7595,7.4205 -69.9395,7.3105 l -0.031,-59.541 c 6.5925,-0.013 14.9217,-0.5526 23.6914,-0.7715 z m 10.5449,79.8828 c 12.0512,0.084 23.8737,0.9289 32.7637,4.0489 22.38,7.84 25.941,36.6914 9.791,53.0214 -16.57,11.25 -55.3996,7.6996 -76.7696,7.5996 l 0.078,-64.1503 c 9.805,0.075 22.0854,-0.6033 34.1367,-0.5196 z"
         style="fill:#132c4a;stroke-width:1.24028"
         id="path108" />
      <path
         fill="#132c4a"
         d="m 1085.42,995.194 48.64,-0.046 c -21.37,26.802 -45.63,54.462 -67.69,81.132 12.61,19.51 27.02,39.92 40.17,59.24 9.9,14.47 19.67,29.02 29.33,43.65 l -48.31,0.02 -49.38,-76.06 -20.46,23.6 -0.23,52.47 h -40.357 l 0.025,-184.021 40.692,-0.015 0.09,81.686 c 22.62,-26.43 45.32,-54.72 67.48,-81.656 z"
         id="path17"
         style="stroke-width:1.24028" />
      <path
         fill="#23559a"
         d="m 1408.13,353.494 c 18.76,10.071 37.27,20.619 55.94,30.854 4.71,2.582 9.39,5.191 13.74,8.362 0.22,25.017 0.22,50.035 0,75.053 -12.11,6.797 -60.28,35.601 -69.86,38.102 -23.26,-12.493 -46.41,-25.2 -69.43,-38.121 l 0.01,-75.314 c 21.38,-13.001 47.4,-26.569 69.6,-38.936 z"
         id="path18"
         style="stroke-width:1.24028" />
      <path
         d="m 1207.5098,1038.2305 c -1.66,-0.02 -3.3093,0.039 -4.9493,0.1894 -19.41,1.49 -34.5497,7.2192 -47.5097,22.1992 -14.45,16.7 -17.9704,37.5014 -16.4004,58.6914 2.97,41.91 37.4401,66.5398 78.1601,62.2598 17.12,-1.8 33.3998,-6.9994 45.0098,-20.6094 3.52,-4.12 10.889,-16.3603 9.709,-21.5703 -1.89,-0.77 -1.6101,-0.8115 -3.5801,-1.1015 -10.36,-0.64 -21.2,-1.1486 -31.5,-1.9786 -15.16,27.48 -51.7401,19.1397 -58.6601,-10.3203 -0.51,-2.21 -0.9785,-4.4399 -1.3985,-6.6699 l 96.9297,-0.061 c 1.06,-44.94 -16.0505,-80.1993 -65.8105,-81.0293 z m -1.5996,29.08 c 19.4,0.42 26.8607,10.0995 29.7207,27.9395 l -27.8809,-0.01 -30.5898,0.02 c 4.33,-17.33 9.88,-25.2193 28.75,-27.9493 z"
         style="fill:#132c4a;stroke-width:1.24028"
         id="path114" />
      <path
         d="m 1367.4023,1039.1914 c -6.0941,-0.5118 -12.7256,-0.5046 -19.9218,0.039 -10,1.85 -16.711,3.759 -25.541,9.039 -40.66,24.29 -41.8686,95.6114 -2.8086,121.8614 27.75,18.65 79.1997,16.1895 98.7597,-13.9805 3.44,-5.32 5.68,-11.2801 7.5,-17.3301 -5.4,-0.36 -10.9515,-0.8098 -16.3515,-1.0898 -6.75,-0.54 -13.5093,-0.9806 -20.2793,-1.3106 -1.81,3.52 -4.0101,7.8504 -7.3301,9.9004 -27.55,17.02 -48.0104,-0.5308 -52.6504,-27.0508 l 97.2012,0.031 c 0.42,-47.565 -15.9193,-76.5267 -58.5782,-80.1094 z m -8.7617,28.1387 c 20.61,0.78 25.7889,9.3994 30.2989,27.9394 l -28.4395,-0.049 -30.5996,0.049 c 3.49,-17.82 10.7602,-25.3794 28.7402,-27.9394 z"
         style="fill:#132c4a;stroke-width:1.24028"
         id="path113" />
      <path
         fill="#132c4a"
         d="m 1449.13,995.123 39.97,0.022 -0.02,184.055 -39.95,0.04 z"
         id="path33"
         style="stroke-width:1.24028" />
    </g>
    <g
       id="g115"
       style="stroke-width:1.24028">
      <path
         fill="#2965bd"
         d="m 1477.81,392.71 c 0.22,25.017 0.22,50.035 0,75.053 -12.11,6.797 -60.28,35.601 -69.86,38.102 l 0.06,-75.031 c 5.05,-4.044 62.89,-35.303 69.8,-38.124 z"
         id="path19"
         style="stroke-width:1.24028" />
      <path
         fill="#132c4a"
         d="m 1338.53,392.43 c 22.12,12.577 46.97,26.647 69.48,38.404 l -0.06,75.031 c -23.26,-12.493 -46.41,-25.2 -69.43,-38.121 z"
         id="path20"
         style="stroke-width:1.24028" />
      <path
         fill="#23559a"
         d="m 1171.03,481.459 69.69,-38.739 c 15.41,8.653 30.91,17.166 46.48,25.538 4.87,2.66 20.73,10.1 22.6,14.791 0.33,24.447 0.46,48.895 0.4,73.344 -22.37,12.529 -47.58,25.467 -69.36,38.25 -23.23,-12.22 -46.86,-25.688 -69.88,-38.426 z"
         id="path21"
         style="stroke-width:1.24028" />
      <path
         fill="url(#Gradient3)"
         d="m 1309.8,483.049 c 0.33,24.447 0.46,48.895 0.4,73.344 -22.37,12.529 -47.58,25.467 -69.36,38.25 -0.44,-4.932 -0.3,-12.405 -0.36,-17.533 2.95,-8.339 -0.62,-53.467 3.89,-58.772 3.72,-4.371 56.23,-32.567 62.88,-34.697 l 1.08,0.714 z"
         id="path22"
         style="fill:url(#Gradient3);stroke-width:1.24028" />
      <path
         fill="#132c4a"
         d="m 1170.96,556.217 0.07,-74.758 c 11.64,7.603 27.7,15.473 40.08,22.372 6.67,3.715 22.84,12.871 29.36,15.491 -0.02,19.157 -0.23,38.661 0.01,57.788 0.06,5.128 -0.08,12.601 0.36,17.533 -23.23,-12.22 -46.86,-25.688 -69.88,-38.426 z"
         id="path23"
         style="stroke-width:1.24028" />
      <path
         fill="#23559a"
         d="m 1506.28,481.408 69.64,-38.555 69.1,38.219 -0.11,9.647 c 0.28,22.013 0.36,44.028 0.23,66.043 l -69.32,37.934 c -22.69,-11.648 -47.09,-25.854 -69.57,-38.302 z"
         id="path24"
         style="stroke-width:1.24028" />
      <path
         fill="#2965bd"
         d="m 1575.98,592.063 c 1.77,-15.66 -1.5,-60.817 1.24,-72.007 2.96,-3.539 59.62,-35.32 65.29,-36.669 3.28,3.118 -0.54,2.531 2.4,7.332 0.28,22.013 0.36,44.028 0.23,66.043 l -69.32,37.934 z"
         id="path25"
         style="stroke-width:1.24028" />
      <path
         fill="#132c4a"
         d="m 1506.28,481.408 c 15.25,10.714 51.69,28.196 69.13,38.384 -0.04,10.152 -0.77,65.756 0.57,72.271 l -0.16,2.633 c -22.69,-11.648 -47.09,-25.854 -69.57,-38.302 z"
         id="path26"
         style="stroke-width:1.24028" />
      <path
         fill="url(#Gradient2)"
         d="m 1338.35,498.099 c 23.33,12.694 46.6,25.512 69.79,38.455 23.13,-12.937 46.34,-25.725 69.64,-38.362 0.18,32.483 0.17,64.966 -0.02,97.448 -11.65,6.369 -61.34,36.202 -69.83,38.116 -23.25,-12.41 -46.35,-25.099 -69.3,-38.063 z"
         id="path31"
         style="fill:url(#Gradient2);stroke-width:1.24028" />
      <path
         fill="#132c4a"
         d="m 1338.35,498.099 c 23.33,12.694 46.6,25.512 69.79,38.455 -0.17,29.582 1.12,68.609 -0.21,97.202 -23.25,-12.41 -46.35,-25.099 -69.3,-38.063 z"
         id="path32"
         style="stroke-width:1.24028" />
      <path
         fill="#132c4a"
         d="m 1338.42,625.962 c 22.66,11.843 47.1,26.201 69.72,38.734 -0.05,9.177 -0.77,46.71 0.56,54.012 -22.91,4.515 -47.14,8 -70.29,11.597 z"
         id="path34"
         style="stroke-width:1.24028" />
      <path
         fill="#132c4a"
         d="m 1506.31,587.032 c 21.55,11.054 48.6,28.587 69.61,38.141 -0.15,15.53 -0.68,32.822 0.13,48.193 -23.11,7.844 -46.38,15.235 -69.78,22.168 z"
         id="path35"
         style="stroke-width:1.24028" />
      <path
         fill="#132c4a"
         d="m 1171.03,653.636 c 23.15,11.684 47.08,26.343 70.13,38.845 -1.26,6.543 -2.31,43.024 0.46,47.797 -8.82,1.912 -59.33,3.329 -70.57,3.664 z"
         id="path36"
         style="stroke-width:1.24028" />
      <path
         fill="#23559a"
         d="m 1408.14,664.696 c 23.27,-12.23 46.46,-25.863 69.6,-38.524 l -0.03,77.181 c -21.53,5.766 -47.04,10.914 -69.01,15.355 -1.33,-7.302 -0.61,-44.835 -0.56,-54.012 z"
         id="path37"
         style="stroke-width:1.24028" />
      <path
         fill="url(#Gradient1)"
         d="m 1241.16,692.481 c 22.52,-12.919 46.12,-26.379 68.89,-38.803 v 80.021 c -20.15,2.797 -48.08,5.649 -68.43,6.579 -2.77,-4.773 -1.72,-41.254 -0.46,-47.797 z"
         id="path38"
         style="fill:url(#Gradient1);stroke-width:1.24028" />
      <path
         fill="#2965bd"
         d="m 1575.92,625.173 c 19.66,-11.843 48.94,-27.842 69.42,-38.329 0.06,19.178 0.38,38.948 0.17,58.076 -22.8,10.318 -45.97,19.806 -69.46,28.446 -0.81,-15.371 -0.28,-32.663 -0.13,-48.193 z"
         id="path39"
         style="stroke-width:1.24028" />
      <path
         fill="#132c4a"
         d="m 1171.06,586.528 c 21.05,10.476 49.11,26.896 69.72,38.673 -0.1,8.316 -1.7,30.779 2.31,36.176 -5.1,0.754 -62.98,-32.958 -71.99,-37.993 z"
         id="path40"
         style="stroke-width:1.24028" />
      <path
         fill="#23559a"
         d="m 1307.46,588.015 1.79,-0.111 c 1.76,3.978 1,30.154 0.94,35.806 l -45.85,25.309 c -4.09,2.278 -18.32,9.959 -21.25,12.358 -4.01,-5.397 -2.41,-27.86 -2.31,-36.176 l 57.48,-31.839 z"
         id="path41"
         style="stroke-width:1.24028" />
    </g>
  </g>
</svg>
